<?xml version="1.0" encoding="UTF-8"?>
<!-- Generator: Adobe Illustrator 26.5.0, SVG Export Plug-In . SVG Version: 6.00 Build 0)  -->
<svg xmlns="http://www.w3.org/2000/svg" xmlns:xlink="http://www.w3.org/1999/xlink" version="1.1" id="Capa_1" x="0px" y="0px" viewBox="0 0 503.991 503.991" style="enable-background:new 0 0 503.991 503.991;" xml:space="preserve" width="512" height="512">
<path style="fill:#33CCCC;" d="M503.833,200.137l-12-70c-0.342-1.95-1.219-3.797-2.494-5.307l-49.897-59.877  c-1.493-1.793-3.519-3.064-5.782-3.629l-80-20c-3.155-0.789-6.505-0.14-9.138,1.775L238.13,120.475l-65.583-9.369  c-1.998-0.285-4.034-0.016-5.889,0.779l-70,30c-2.888,1.238-5.109,3.651-6.103,6.632l-18.387,55.16l-45.263,18.105  c-3.28,1.312-5.729,4.119-6.587,7.545L0.36,309.162c-0.771,2.913-0.29,6.106,1.303,8.663l50,80c0.441,0.706,0.961,1.359,1.55,1.948  l60,60c2.058,2.044,4.926,3.238,7.83,3.222h129.948c2.539,0,5-0.879,6.966-2.487l107.482-87.94l86.767-9.641  c3.358-0.391,6.488-2.357,8.218-5.273l42-70c1.025-1.709,1.567-3.666,1.567-5.659v-80  C503.991,201.373,503.938,200.751,503.833,200.137z M353.306,63.913l71.533,17.883l37.205,44.647l-167.328,52.841l-37.753-45.303  L353.306,63.913z M481.991,278.948l-30.633,51.055l-40.75-73.35c-2.951-5.311-9.648-7.223-14.958-4.274  c-5.31,2.95-7.225,9.647-4.274,14.958l41.973,75.551l-72.123,8.014l-100.558-15.47l36.426-24.284  c5.055-3.37,6.421-10.2,3.051-15.254c-3.369-5.055-10.199-6.42-15.254-3.051l-60,40c-3.776,2.518-5.619,7.096-4.639,11.528  c0.98,4.432,4.582,7.806,9.067,8.497l105.601,16.246l-87.855,71.882H133.976l17.285-103.715l67.508-67.507  c4.296-4.296,4.296-11.26,0-15.556c-4.297-4.296-11.26-4.296-15.557,0l-70,70c-1.621,1.621-2.695,3.708-3.072,5.97l-16.486,98.915  l-44-43.999l-40.38-64.608l53.272-7.61c6.014-0.859,10.193-6.431,9.334-12.445c-0.859-6.014-6.435-10.194-12.445-9.334  l-53.805,7.686l14.669-58.673l41.17-16.468l56.287,17.319c1.078,0.332,2.167,0.489,3.239,0.489c4.701,0,9.055-3.039,10.51-7.768  c1.786-5.806-1.473-11.962-7.278-13.749l-49.24-15.151l14.877-44.632l62.625-26.839l62.759,8.966l47.292,56.751  c2.126,2.551,5.242,3.958,8.451,3.958c1.105,0,2.221-0.167,3.311-0.511l177.976-56.203l9.712,56.649V278.948z"/>















</svg>
