<svg height="512" viewBox="0 0 48 48" width="512" xmlns="http://www.w3.org/2000/svg"><g id="Coal_in_train" data-name="Coal in train"><path d="m14.29 39.29a1 1 0 0 0 -.12 1.27 1 1 0 1 0 .12-1.27z"/><path d="m33.71 39.29c-1.22-1.1-2.52 1-1.09 1.63a1 1 0 0 0 1.09-1.63z"/><path d="m45 13c-.31 0-.1.48-1-3.24-.09-.36-.07-.28-2.26-2.47-.61-.6-1.24-.17-3.3.52-1.76-2.59-1.71-2.66-2.2-2.81-4.24-1-4.33-1.18-4.84-.8l-3.31 2.48-3.38-3.39a1 1 0 0 0 -1.42 0c-3.46 3.47-2 2.46-6.18 4.54l-3.51-2.63c-.36-.27-.19-.2-4.6-.2-.45 0-.22-.09-4.6 3.2-.4.3-.34.39-1.22 4.8a3 3 0 1 0 .06 6l4.44 16h-.68a1 1 0 0 0 -1 1v4a1 1 0 0 0 1 1h3.1a5 5 0 0 0 9.8 0h8.2a5 5 0 0 0 9.8 0h3.1a1 1 0 0 0 1-1v-4a1 1 0 0 0 -1-1h-.68c4.93-17.75 4.33-16 4.68-16a3 3 0 0 0 0-6zm-4.27-3.86 1.37 1.37.62 2.49h-7.44l.56-2.23c2.97-.99 1.86-.61 4.89-1.63zm-8.51-3.05 3.16.79 1.06 1.59c-2.8.93-2.13.15-3.22 4.53h-1.81l-2.41-2.41v-2.09zm-8.22-.68 3 3c0 3.6-.34 2.66 1.59 4.59h-5.2c.87-2.63 1-1.48-1.17-5.8zm-8.61 7.59c.61-1.84.14-1.12 2.2-3.18l3-1.48 1.37 2.74-.68 1.92zm-6.06-6h3.34l2.81 2.11c-1.7 1.7-1.19.86-2.2 3.89h-.66c-1.83-3.65-1.78-3.85-2.42-4l-2.81-.54zm-3.55 3.18 3.54.7 1.06 2.12h-5.16zm2.22 26.82h3c-1.81 2.39.49 2-3 2zm7 6a3 3 0 1 1 3-3 3 3 0 0 1 -3 3zm13.1-4h-8.2a4.84 4.84 0 0 0 -.9-2h10a4.84 4.84 0 0 0 -.9 2zm4.9 4a3 3 0 1 1 3-3 3 3 0 0 1 -3 3zm7-4c-3.47 0-1.24.36-3-2h3zm-1.76-4h-28.48l-4.44-16h37.36zm6.76-18h-42a1 1 0 0 1 0-2h42a1 1 0 0 1 0 2z"/></g></svg>