<svg id="Capa_1" enable-background="new 0 0 512 512" height="512" viewBox="0 0 512 512" width="512" xmlns="http://www.w3.org/2000/svg"><g><path d="m127.787 282.63c-4.504-14.077-6.787-28.487-6.787-42.83 0-3.793.164-7.556.476-11.282 3.895 4.124 8.433 7.766 13.592 10.744 28.783 16.617 65.408 6.711 81.961-21.961 16.581-28.717 6.761-65.38-21.961-81.961-5.194-2.999-10.656-5.118-16.214-6.427 14.727-10.286 31.662-17.718 50.088-21.403 7.011-1.404 12.058-7.56 12.058-14.71v-60.6c0-4.333-1.873-8.453-5.138-11.302s-7.606-4.146-11.893-3.56c-44.332 6.057-85.983 25.755-119.018 56.003l-16.963-22.557c-3.111-4.138-8.14-6.382-13.295-5.927-5.158.451-9.719 3.53-12.064 8.146l-61 120c-2.383 4.687-2.138 10.277.645 14.737 2.743 4.396 7.556 7.061 12.726 7.06.076 0 20.467-.308 20.467-.308-2.969 14.783-4.467 29.953-4.467 45.308 0 28.592 5.407 56.608 16.073 83.271 1.615 4.04 4.906 7.179 9.018 8.603 4.101 1.421 8.631.997 12.407-1.182l52.5-30.3c6.112-3.528 8.94-10.84 6.789-17.562zm63.261-80.329c-8.291 14.359-26.62 19.271-40.98 10.98-13.92-8.037-19.568-26.173-10.771-41.318 8.366-14.06 26.55-18.854 40.771-10.644 14.358 8.291 19.271 26.619 10.98 40.982zm-121.877 93.165c-5.428-18.067-8.171-36.723-8.171-55.666 0-19.321 2.718-38.274 8.079-56.332 1.358-4.577.458-9.526-2.427-13.331-2.838-3.744-7.263-5.938-11.952-5.938-.076 0-15.058.226-15.058.226l38.828-76.383 12.84 17.074c2.669 3.549 6.774 5.733 11.209 5.964 4.436.236 8.743-1.515 11.768-4.769 26.032-28.014 59.889-47.563 96.713-56.113v30.785c-69.08 19.375-120 83.377-120 158.817 0 13.466 1.646 26.954 4.901 40.238z"/><path d="m510.371 173.003-61-120c-2.346-4.615-6.906-7.694-12.064-8.146-5.151-.453-10.183 1.79-13.295 5.927l-16.964 22.558c-33.034-30.248-74.686-49.946-119.018-56.003-4.285-.587-8.628.711-11.893 3.56-3.264 2.848-5.137 6.969-5.137 11.301v60.6c0 7.15 5.047 13.307 12.059 14.708 18.426 3.686 35.361 11.117 50.089 21.403-5.559 1.309-11.021 3.429-16.215 6.427-28.717 16.579-38.545 53.24-21.961 81.961 16.54 28.651 53.16 38.589 81.961 21.962 5.158-2.978 9.696-6.62 13.592-10.744.312 3.727.476 7.489.476 11.282 0 14.343-2.283 28.753-6.787 42.83-2.15 6.722.677 14.034 6.789 17.562l52.5 30.3c3.773 2.178 8.302 2.604 12.407 1.182 4.111-1.424 7.402-4.563 9.018-8.603 10.665-26.662 16.072-54.678 16.072-83.27 0-15.355-1.498-30.525-4.466-45.308 0 0 20.391.308 20.467.308 5.17 0 9.982-2.665 12.726-7.06 2.782-4.46 3.027-10.051.644-14.737zm-148.438 40.278c-14.359 8.289-32.689 3.381-40.98-10.981-8.29-14.359-3.381-32.689 10.98-40.981 14.224-8.212 32.402-3.412 40.768 10.637.137.237.277.472.413.709 7.979 14.273 3.024 32.415-11.181 40.616zm95.594-49.08c-4.726-.091-9.296 2.131-12.18 5.936-2.885 3.805-3.785 8.754-2.427 13.331 5.361 18.057 8.079 37.01 8.079 56.332 0 18.943-2.743 37.599-8.171 55.666l-26.73-15.428c3.257-13.284 4.902-26.772 4.902-40.238 0-73.166-48.621-138.797-120-158.817v-30.785c36.824 8.551 70.681 28.099 96.713 56.114 3.023 3.253 7.324 4.998 11.768 4.769 4.435-.23 8.54-2.415 11.209-5.964l12.84-17.074 38.828 76.383z"/><path d="m428.198 356.709-52.5-30.3c-6.18-3.566-14.017-2.288-18.739 3.06-12.224 13.836-27.07 24.828-43.482 32.527 1.634-5.451 2.523-11.22 2.523-17.195 0-33.084-26.916-60-60-60s-60 26.916-60 60c0 5.976.89 11.745 2.524 17.196-16.413-7.699-31.258-18.691-43.482-32.527-4.724-5.347-12.561-6.627-18.739-3.061l-52.5 30.3c-3.77 2.176-6.408 5.881-7.231 10.154s.25 8.694 2.941 12.114c28.148 35.773 66.473 62.148 109.195 75.442l-6.926 20.602c-1.539 4.577-.78 9.614 2.038 13.535 2.818 3.92 7.352 6.245 12.18 6.245h120c4.828 0 9.361-2.324 12.18-6.245 2.818-3.921 3.577-8.958 2.038-13.535l-6.926-20.602c42.724-13.294 81.048-39.669 109.196-75.442 2.691-3.42 3.765-7.84 2.941-12.114-.822-4.273-3.461-7.978-7.231-10.154zm-202.198-11.909c0-16.542 13.458-30 30-30s30 13.458 30 30-13.458 30-30 30-30-13.458-30-30zm74.647 84.679c-4.129.947-7.665 3.595-9.734 7.291-2.07 3.696-2.48 8.094-1.131 12.109l5.352 15.921h-78.266l5.352-15.921c1.35-4.015.939-8.414-1.131-12.109-2.069-3.696-5.605-6.344-9.734-7.291-36.837-8.446-70.674-28.044-96.874-55.837l26.613-15.359c30.543 29.702 71.762 46.517 114.906 46.517s84.363-16.816 114.908-46.518l26.613 15.36c-26.2 27.793-60.037 47.391-96.874 55.837z"/></g></svg>