<?xml version="1.0" encoding="UTF-8"?>
<!-- Generator: Adobe Illustrator 26.4.1, SVG Export Plug-In . SVG Version: 6.00 Build 0)  -->
<svg xmlns="http://www.w3.org/2000/svg" xmlns:xlink="http://www.w3.org/1999/xlink" version="1.1" id="Capa_1" x="0px" y="0px" viewBox="0 0 512.001 512.001" style="enable-background:new 0 0 512.001 512.001;" xml:space="preserve" width="512" height="512">
<g>
	<g>
		<path style="fill:#33CCCC;" d="M52.682,136.876c-5.244,0-9.759-3.7-10.787-8.842l-0.89-4.447    c-3.923-19.612-16.608-35.92-34.804-44.742c-3.478-1.686-5.816-5.074-6.158-8.924c-0.342-3.85,1.361-7.597,4.487-9.87    l11.452-8.329c12.142-8.83,20.775-21.728,24.312-36.317l1.696-6.997C43.187,3.475,47.605,0,52.681,0c0,0,0,0,0,0    c5.077,0,9.494,3.475,10.69,8.408l1.842,7.597c3.456,14.259,11.825,26.96,23.562,35.764l11.169,8.377    c3.05,2.288,4.698,5.991,4.355,9.788c-0.342,3.797-2.627,7.145-6.036,8.851c-17.616,8.808-29.934,24.936-33.797,44.249    l-0.999,4.998C62.44,133.174,57.925,136.875,52.682,136.876z M30.696,68.188c8.899,6.773,16.301,15.137,21.873,24.666    c5.457-9.518,12.717-17.889,21.452-24.68c-8.728-6.868-15.996-15.364-21.435-24.929C47.021,52.852,39.602,61.35,30.696,68.188z"/>
	</g>
	<g>
		<path style="fill:#33CCCC;" d="M459.32,145.009C459.319,145.009,459.319,145.009,459.32,145.009    c-5.244-0.001-9.759-3.702-10.787-8.844l-0.999-5c-3.862-19.311-16.181-35.439-33.797-44.247c-3.41-1.705-5.694-5.054-6.036-8.851    c-0.342-3.797,1.306-7.501,4.355-9.788l11.409-8.557c11.606-8.705,19.936-21.25,23.454-35.324l1.729-6.917    c1.224-4.896,5.624-8.332,10.671-8.332c5.047,0,9.447,3.435,10.671,8.332l1.58,6.318c3.601,14.403,12.196,27.145,24.204,35.877    l11.695,8.506c3.126,2.273,4.829,6.02,4.487,9.87c-0.342,3.85-2.68,7.238-6.158,8.924c-18.196,8.823-30.882,25.13-34.804,44.742    l-0.89,4.448C469.077,141.308,464.563,145.009,459.32,145.009z M437.986,76.311c8.731,6.79,15.992,15.161,21.447,24.676    c5.57-9.526,12.97-17.889,21.866-24.661c-8.875-6.767-16.294-15.188-21.883-24.713C453.951,61.096,446.684,69.516,437.986,76.311z    "/>
	</g>
	<path d="M511.314,497.176l-33.548-90.477c-1.6-4.313-5.714-7.176-10.314-7.176h-32.751l67.239-141.663   c1.873-3.945,1.234-8.624-1.627-11.923L423.47,157.32c-2.909-3.355-7.551-4.629-11.766-3.237l-62.752,20.764l15.44-79.403   c0.766-3.938-0.673-7.981-3.756-10.55L263.042,3.566c-4.079-3.399-10.005-3.399-14.084,0l-97.593,81.328   c-3.082,2.569-4.521,6.612-3.756,10.55l15.44,79.404l-62.752-20.764c-4.215-1.395-8.857-0.119-11.766,3.236l-76.844,88.617   c-2.861,3.299-3.499,7.978-1.627,11.923l78.819,166.061H52.681c-3.776,0-7.289,1.938-9.304,5.131L1.697,495.132   c-2.138,3.389-2.264,7.672-0.329,11.181C3.304,509.822,6.994,512,11,512h490c3.601,0,6.973-1.762,9.03-4.718   C512.086,504.327,512.566,500.552,511.314,497.176z M361.923,399.523l27.767-100.944l81.345-26.912l-60.686,127.856H361.923z    M267,358.859V179.825l69.897-58.248l-46.139,237.283H267z M161.712,358.859l-18.189-66.115l34.676-39.984l20.631,106.099H161.712z    M221.242,358.859l-46.139-237.283L245,179.825v179.034H221.242z M333.802,252.76l34.676,39.984l-25.264,91.842l-22.506-22.506   c-2.006-2.006-4.709-3.148-7.539-3.21L333.802,252.76z M411.653,177.273l61.229,70.61l-88.73,29.355l-45.017-51.907l5.001-25.717   L411.653,177.273z M256,26.336l80.411,67.009L256,160.354L175.59,93.345L256,26.336z M100.348,177.273l67.517,22.341l5.001,25.717   l-45.017,51.907l-88.73-29.355L100.348,177.273z M40.966,271.667l81.345,26.912l21.096,76.683l-24.33,48.66h-5.846L40.966,271.667z    M30.944,490l27.804-44.079h47.5c0.012,0,0.023,0.002,0.035,0.002c0.015,0,0.03-0.002,0.045-0.002h19.548h89.46   c6.075,0,11-4.925,11-11s-4.925-11-11-11h-71.662l21.531-43.062h46.826c0.021,0,0.042,0,0.063,0h87.703   c0.014,0,0.027,0.002,0.041,0.002c0.015,0,0.03-0.002,0.044-0.002h8.491l37.442,37.442c2.063,2.063,4.861,3.222,7.778,3.222h63.658   c0.015,0,0.03,0.003,0.045,0.003c0.012,0,0.023-0.003,0.035-0.003h42.468L485.19,490H30.944z"/>
</g>















</svg>
