<?xml version="1.0" encoding="UTF-8"?>
<!-- Generator: Adobe Illustrator 26.5.0, SVG Export Plug-In . SVG Version: 6.00 Build 0)  -->
<svg xmlns="http://www.w3.org/2000/svg" xmlns:xlink="http://www.w3.org/1999/xlink" version="1.1" id="Capa_1" x="0px" y="0px" viewBox="0 0 504.109 504.109" style="enable-background:new 0 0 504.109 504.109;" xml:space="preserve" width="512" height="512">
<g>
	<g>
		<path d="M359.809,370.841c-2.815,0-5.63-1.074-7.778-3.222c-4.296-4.296-4.296-11.26,0-15.556    c56.381-56.383,98.348-120.187,118.17-179.658c18.966-56.9,15.267-102.381-10.416-128.065    c-17.558-17.559-45.011-24.947-79.384-21.368c-35.189,3.664-75.9,18.481-117.734,42.848c-5.249,3.058-11.984,1.281-15.041-3.969    c-3.058-5.25-1.281-11.984,3.968-15.042c44.509-25.925,88.262-41.735,126.529-45.719c41.197-4.289,74.814,5.287,97.219,27.693    c31.882,31.884,37.469,85.36,15.73,150.578c-20.881,62.648-64.736,129.505-123.485,188.257    C365.44,369.767,362.624,370.841,359.809,370.841z"/>
		<path d="M107.595,504.021c-32.73,0-59.886-9.699-78.829-28.642c-31.882-31.884-37.469-85.36-15.73-150.578    c20.881-62.648,64.736-129.506,123.485-188.257c19.841-19.842,41.008-38.299,62.912-54.859c4.847-3.664,11.746-2.705,15.408,2.141    c3.664,4.846,2.706,11.745-2.141,15.408c-21.099,15.951-41.496,33.737-60.623,52.866C95.697,208.483,53.73,272.286,33.907,331.757    C14.942,388.658,18.64,434.139,44.323,459.823c22.214,22.215,60.479,28.012,107.747,16.321    c48.937-12.103,104.359-42.052,156.057-84.328c4.703-3.845,11.633-3.151,15.479,1.552c3.846,4.703,3.151,11.633-1.552,15.479    C267.883,453.145,209.39,484.63,157.352,497.5C139.711,501.863,123.032,504.021,107.595,504.021z"/>
	</g>
	<path d="M123.727,437.733c-17.622,0-31.93-5.076-42.086-15.231c-20.422-20.422-20.304-57.648,0.335-104.821   c19.234-43.964,54.272-92.621,98.66-137.008c44.388-44.388,93.045-79.426,137.009-98.66c47.174-20.639,84.399-20.757,104.822-0.335   c20.422,20.422,20.304,57.648-0.335,104.822c-19.234,43.964-54.272,92.621-98.66,137.009c-25.78,25.78-53.02,48.381-80.962,67.174   c-5.041,3.391-11.876,2.053-15.267-2.988c-3.391-5.041-2.053-11.876,2.988-15.267c26.768-18.004,52.904-39.697,77.683-64.476   c42.495-42.495,75.9-88.759,94.061-130.27c16.514-37.747,18.312-67.069,4.934-80.447c-13.378-13.379-42.7-11.58-80.447,4.934   c-41.511,18.161-87.776,51.566-130.271,94.061c-42.495,42.495-75.9,88.759-94.061,130.271   c-16.514,37.747-18.312,67.068-4.934,80.447c13.38,13.38,42.702,11.581,80.447-4.934c5.568-2.436,12.053,0.103,14.487,5.669   c2.435,5.566-0.103,12.052-5.668,14.487C162.748,432.544,141.544,437.733,123.727,437.733z"/>
	<path style="fill:#33CCCC;" d="M144.589,378.256c-5.538,0-9.964-1.765-13.45-5.251c-10.541-10.541-5.349-29.702,16.837-62.127   c17.734-25.919,44.4-57.094,75.086-87.78c4.296-4.296,11.261-4.296,15.557,0c4.296,4.296,4.296,11.261,0,15.556   c-26.95,26.95-51.09,54.728-67.974,78.217c-15.498,21.562-20.442,33.168-22.006,38.633c5.465-1.564,17.071-6.507,38.633-22.006   c23.489-16.883,51.267-41.024,78.217-67.974c26.95-26.95,51.09-54.728,67.974-78.217c15.542-21.622,20.47-33.232,22.018-38.678   c-9.259,2.722-32.393,14.426-73.491,49.721c-4.608,3.958-11.552,3.431-15.512-1.178c-3.958-4.609-3.43-11.554,1.179-15.512   c22.734-19.525,43.579-34.889,60.278-44.431c13.956-7.975,33.809-17.28,45.035-6.055c10.541,10.541,5.349,29.702-16.837,62.127   c-17.734,25.919-44.4,57.093-75.086,87.779c-30.687,30.686-61.86,57.353-87.78,75.087   C171.562,371.019,155.8,378.255,144.589,378.256z M147.934,359.585h0.01H147.934z"/>
	<path style="fill:#33CCCC;" d="M493.054,361.09h-19v-19c0-6.075-4.925-11-11-11c-6.075,0-11,4.925-11,11v19h-19   c-6.075,0-11,4.925-11,11c0,6.075,4.925,11,11,11h19v19c0,6.075,4.925,11,11,11c6.075,0,11-4.925,11-11v-19h19   c6.075,0,11-4.925,11-11C504.054,366.015,499.13,361.09,493.054,361.09z"/>
	<path style="fill:#33CCCC;" d="M71.054,30.088h-19v-19c0-6.075-4.925-11-11-11c-6.075,0-11,4.925-11,11v19h-19   c-6.075,0-11,4.925-11,11s4.925,11,11,11h19v19c0,6.075,4.925,11,11,11c6.075,0,11-4.925,11-11v-19h19c6.075,0,11-4.925,11-11   S77.13,30.088,71.054,30.088z"/>
</g>
<path d="M387.054,468.088c-12.921,0.319-14.897-19.571-2.15-21.78C400.461,443.483,402.857,467.811,387.054,468.088z"/>
<path d="M57.054,158.088c-15.807-0.279-13.402-24.608,2.151-21.78C71.943,138.515,69.977,158.41,57.054,158.088z"/>
<path d="M157.054,38.088c-15.809-0.281-13.403-24.607,2.151-21.78C171.944,18.515,169.978,38.408,157.054,38.088z"/>















</svg>
