<?xml version="1.0" encoding="UTF-8"?>
<!-- Generator: Adobe Illustrator 24.2.3, SVG Export Plug-In . SVG Version: 6.00 Build 0)  -->
<svg xmlns="http://www.w3.org/2000/svg" xmlns:xlink="http://www.w3.org/1999/xlink" version="1.1" id="Capa_1" x="0px" y="0px" viewBox="0 0 512 512" style="enable-background:new 0 0 512 512;" xml:space="preserve" width="512" height="512">
<g>
	<g>
		<g>
			<path style="fill:#33CCCC;" d="M255.265,150.389c-24.262,0-44-19.738-44-44c2.417-58.372,85.592-58.355,88,0     C299.265,130.651,279.527,150.389,255.265,150.389z M255.265,84.389c-12.131,0-22,9.869-22,22c1.208,29.186,42.796,29.178,44,0     C277.265,94.258,267.396,84.389,255.265,84.389z"/>
		</g>
		<g>
			<path style="fill:#33CCCC;" d="M255.265,301.966c-3.895,0-7.503-2.062-9.479-5.419l-78.308-132.994c0,0,0,0-0.001,0     C124.852,92.816,171.612,0.363,256,0c84.311,0.124,131.51,93.526,88.113,163.852c0.001,0-79.408,132.761-79.408,132.761     C262.719,299.934,259.133,301.966,255.265,301.966z M186.436,152.391l68.903,117.021l69.895-116.854     c8.684-14.518,13.273-31.134,13.273-48.052C338.507,59.012,301.494,22,256,22C188.523,22.425,152.468,96.192,186.436,152.391     L186.436,152.391z"/>
		</g>
	</g>
	<path style="fill:#33CCCC;" d="M89.061,388.152c14.011,9.716,38.302,17.156,58.827,17.373c21.195,0.131,36.86-7.788,51.333-21.302   c5.07-4.401,9.859-8.557,15.046-11.142c9.299-4.632,20.803-4.766,32.981-4.907c53.828,4.132,135.266-51.067,155.887-101.109H378.63   c-18.429,34.618-81.717,77.191-118.04,78.698c-18.805,1.197-37.95-1.433-56.132,7.627c-12.834,6.199-21.507,17.561-32.989,24.454   c-18.501,11.671-54.318,2.953-70.121-7.942c-22.322-15.027-50.863-1.248-55.938-11.949c3.489,7.357,6.955,14.42,11.219,21.281   C65.843,379.066,77.642,380.464,89.061,388.152z"/>
	<path style="fill:#33CCCC;" d="M300.834,420.967c-39.382,14.373-50.991,49.048-54.409,67.627c2.607,0.087,9.259,0.404,22.47-0.148   c3.415-14.454,12.943-37.127,39.481-46.813c41.328-15.124,80.148-14.449,121.213-27.483c10.245-11.138,18.503-23.104,26.456-36.067   C405.336,407.975,355.099,400.536,300.834,420.967z"/>
	<path d="M511.861,255.963c-0.055-6.028-4.959-10.898-11-10.898H295.538l-13.159,22h207.23   c-23.958,295.731-443.373,295.508-467.22,0h206.036l-12.954-22H11.139c-6.035,0-10.936,4.86-10.999,10.881   C0.082,324.35,26.709,388.69,75.078,437.059C235.883,597.557,511.811,483.135,511.861,255.963z"/>
</g>















</svg>
