<?xml version="1.0" encoding="UTF-8"?>
<!-- Generator: Adobe Illustrator 26.4.1, SVG Export Plug-In . SVG Version: 6.00 Build 0)  -->
<svg xmlns="http://www.w3.org/2000/svg" xmlns:xlink="http://www.w3.org/1999/xlink" version="1.1" id="Capa_1" x="0px" y="0px" viewBox="0 0 512 512" style="enable-background:new 0 0 512 512;" xml:space="preserve" width="512" height="512">
<g>
	<g>
		<path style="fill:#33CCCC;" d="M136.605,501h-22v-17.318c0-24.021-9.313-51.961-23.726-71.178l17.6-13.199    c17.349,23.131,28.126,55.462,28.126,84.377V501z"/>
	</g>
	<g>
		<path style="fill:#33CCCC;" d="M397.395,501h-22v-17.318c0-28.915,10.777-61.246,28.126-84.377l17.6,13.199    c-14.413,19.217-23.726,47.156-23.726,71.178V501z"/>
	</g>
	<g>
		<path d="M468.624,271.462c17.132-17.408,26.567-40.445,26.567-64.869v-48.898c0-6.075-4.925-11-11-11h-16.299    c-20.054,0-39.359,6.505-55.178,18.264c-4.511-14.816-11.166-29.013-19.888-42.26C373.8,93.801,345.565,71.254,313.321,59.21    c-5.692-2.124-12.028,0.765-14.154,6.456c-2.126,5.69,0.765,12.027,6.455,14.153c58.098,21.701,95.843,80.097,91.79,142.01    l-4.261,65.287c-0.001,0.015-0.002,0.03-0.003,0.046l-0.565,8.656C387.903,367.575,327.908,423.784,256,423.784    S124.097,367.575,119.417,295.82l-0.566-8.669c-0.001-0.01-0.001-0.021-0.002-0.031l-4.262-65.294    c-4.053-61.901,33.692-120.297,91.791-142.009c5.691-2.126,8.58-8.464,6.454-14.154c-2.127-5.691-8.464-8.582-14.155-6.453    c-32.887,12.289-60.461,34.366-79.742,63.845c-8.601,13.149-15.176,27.225-19.646,41.905    c-15.819-11.76-35.126-18.266-55.181-18.266H27.809c-6.075,0-11,4.925-11,11v48.898c0,24.424,9.435,47.461,26.567,64.869    c14.71,14.947,33.661,24.27,54.17,26.861c2.488,34.584,16.035,66.984,38.588,92.861h-9.511    c-60.552,0-109.815,49.263-109.815,109.815c0,6.075,4.925,11,11,11h456.383c6.075,0,11-4.925,11-11    c0-60.553-49.263-109.815-109.815-109.815h-9.511c22.553-25.876,36.1-58.276,38.588-92.861    C434.963,295.731,453.914,286.409,468.624,271.462z M38.809,206.593v-37.898h5.299c18.739,0,36.609,7.47,49.789,20.621    c-1.577,11.128-2.013,22.484-1.262,33.948l3.429,52.539C63.578,269.54,38.809,240.705,38.809,206.593z M472.506,490H39.494    c5.427-43.25,42.432-76.815,87.129-76.815h32.961c27.603,21.117,61.285,32.6,96.416,32.6s68.813-11.482,96.416-32.6h32.961    C430.074,413.185,467.079,446.75,472.506,490z M467.892,168.694h5.299v37.898c0,34.112-24.769,62.947-57.255,69.209l3.429-52.538    c0.751-11.47,0.317-22.828-1.258-33.954C431.287,176.163,449.155,168.694,467.892,168.694z"/>
		<path d="M161.797,188.431c-3.218,1.465-5.536,4.387-6.23,7.855l-6.803,34.014c-1.198,5.994-1.048,12.296,0.434,18.224l0.699,2.795    c4.632,18.53,21.208,31.473,40.309,31.473c19.737,0,36.872-14.047,40.743-33.401l3.238-16.189    c0.929-4.643-1.218-9.358-5.329-11.708l-57.048-32.6C168.743,187.139,165.015,186.967,161.797,188.431z M211.06,236.659    l-1.683,8.415c-1.822,9.106-9.884,15.716-19.171,15.716c-8.987,0-16.787-6.09-18.966-14.808l-0.699-2.795    c-0.697-2.79-0.768-5.755-0.205-8.575l3.81-19.047L211.06,236.659z"/>
		<path d="M281.05,249.389c3.871,19.354,21.006,33.401,40.743,33.401c19.101,0,35.677-12.942,40.31-31.474l0.698-2.793    c1.482-5.929,1.633-12.23,0.435-18.226l-6.803-34.013c-0.693-3.468-3.011-6.39-6.229-7.855c-3.219-1.465-6.945-1.293-10.014,0.461    l-57.048,32.6c-4.111,2.35-6.257,7.065-5.329,11.708L281.05,249.389z M337.853,215.565l3.81,19.046    c0.564,2.821,0.493,5.786-0.205,8.577l-0.698,2.793c-2.18,8.719-9.98,14.809-18.967,14.809c-9.287,0-17.349-6.609-19.171-15.716    l-1.683-8.415L337.853,215.565z"/>
		<path d="M223.401,317.838c-6.075,0-11,4.925-11,11v10.848c-2.709-1.248-5.378-2.606-7.992-4.1    c-5.274-3.013-11.994-1.182-15.008,4.093c-3.014,5.275-1.182,11.994,4.093,15.009c8.275,4.728,16.981,8.435,25.93,11.133    c0.614,0.239,1.252,0.427,1.914,0.553c11.308,3.215,22.982,4.837,34.661,4.837c11.674,0,23.346-1.622,34.654-4.836    c0.671-0.127,1.318-0.318,1.94-0.561c8.944-2.699,17.645-6.402,25.912-11.126c5.275-3.015,7.107-9.733,4.093-15.009    c-3.015-5.274-9.735-7.106-15.008-4.093c-2.613,1.493-5.283,2.852-7.992,4.1v-10.848c0-6.075-4.925-11-11-11s-11,4.925-11,11    v18.125c-14.229,2.998-28.969,2.997-43.197,0v-18.125C234.401,322.763,229.477,317.838,223.401,317.838z"/>
	</g>
	<g>
		<path style="fill:#33CCCC;" d="M256,160.545c-37.521,0-68.048-30.526-68.048-68.048c0-17.968,7.048-40.352,18.394-58.414    C220.151,12.104,237.785,0,256,0s35.849,12.104,49.654,34.083C317,52.146,324.048,74.529,324.048,92.497    C324.048,130.019,293.522,160.545,256,160.545z M256,22c-23.745,0-46.048,43.979-46.048,70.497    c0,25.391,20.657,46.048,46.048,46.048s46.048-20.657,46.048-46.048C302.048,65.979,279.745,22,256,22z"/>
	</g>
</g>















</svg>
