<?xml version="1.0"?>
<svg xmlns="http://www.w3.org/2000/svg" id="Layer_1" data-name="Layer 1" viewBox="0 0 64 64" width="512" height="512"><path d="M41,27c-5.7,0-10,2.15-10,5s4.3,5,10,5,10-2.15,10-5S46.7,27,41,27Zm0,8c-4.88,0-8-1.78-8-3s3.12-3,8-3,8,1.78,8,3S45.88,35,41,35Z"/><path d="M56.83,19.08A27.94,27.94,0,0,0,19.49,7,6.5,6.5,0,1,0,9.88,14.9,27.74,27.74,0,0,0,5.42,40.74,5,5,0,0,0,8,50a4.86,4.86,0,0,0,2.15-.51,28.31,28.31,0,0,0,4.13,4.2l.08.06a28,28,0,0,0,28.7,4,9,9,0,1,0,13.35-12A28,28,0,0,0,60,32a27.24,27.24,0,0,0-.39-4.56,5,5,0,0,0-2.78-8.36ZM58,32a26.64,26.64,0,0,1-.32,4,24.5,24.5,0,0,0-9.55,1.75,21.62,21.62,0,0,1-14.25,0A23.24,23.24,0,0,0,25.39,36H6.32A26.54,26.54,0,0,1,6,32a25.4,25.4,0,0,1,.33-4H25.75a19.81,19.81,0,0,0,7.82-1.62A19.23,19.23,0,0,1,41,25a19.46,19.46,0,0,1,7.46,1.38,20.16,20.16,0,0,0,4.12,1.25,5.25,5.25,0,0,0,5.18,1A26.12,26.12,0,0,1,58,32Zm1-8a3,3,0,1,1-3-3A3,3,0,0,1,59,24ZM13.5,5A4.5,4.5,0,1,1,9,9.5,4.51,4.51,0,0,1,13.5,5Zm0,11A6.68,6.68,0,0,0,20,9a26,26,0,0,1,33.26,8H41a1,1,0,0,0,0,2H54.51l.12.22A5,5,0,0,0,51,24a5.08,5.08,0,0,0,.17,1.24,20.31,20.31,0,0,1-1.93-.7A21.5,21.5,0,0,0,41,23a21.36,21.36,0,0,0-8.22,1.54,17.86,17.86,0,0,1-7,1.46h-19a25.93,25.93,0,0,1,2.76-7H37a1,1,0,0,0,0-2H10.78c.3-.43.63-.84,1-1.25A6.4,6.4,0,0,0,13.5,16ZM5,45a3,3,0,1,1,3,3A3,3,0,0,1,5,45Zm6.74,3.28A4.88,4.88,0,0,0,12.57,47H23a1,1,0,0,0,0-2H13a5,5,0,0,0-5-5,5.35,5.35,0,0,0-.7.07c-.22-.68-.42-1.37-.58-2.07H25.39a21.14,21.14,0,0,1,7.75,1.61A21.7,21.7,0,0,0,41,41a21.8,21.8,0,0,0,7.87-1.39A23,23,0,0,1,57.29,38a25.52,25.52,0,0,1-2.46,6.42A9,9,0,0,0,44.34,45H27a1,1,0,1,0,0,2H42.52A8.93,8.93,0,0,0,41,52H15.37A26.64,26.64,0,0,1,11.74,48.28ZM32,58a25.84,25.84,0,0,1-13.88-4H41.23A8.86,8.86,0,0,0,42,56,25.84,25.84,0,0,1,32,58Zm18,1a7,7,0,1,1,7-7A7,7,0,0,1,50,59Z"/></svg>
