<?xml version="1.0" encoding="UTF-8"?>
<!-- Generator: Adobe Illustrator 26.5.0, SVG Export Plug-In . SVG Version: 6.00 Build 0)  -->
<svg xmlns="http://www.w3.org/2000/svg" xmlns:xlink="http://www.w3.org/1999/xlink" version="1.1" id="Capa_1" x="0px" y="0px" viewBox="0 0 504 504" style="enable-background:new 0 0 504 504;" xml:space="preserve" width="512" height="512">
<g>
	<path d="M312,233c-18.391,0-35.802-5.462-49.026-15.38C248.804,206.992,241,192.566,241,177c0-15.567,7.804-29.993,21.974-40.62   C276.198,126.462,293.609,121,312,121s35.802,5.462,49.026,15.38C375.196,147.007,383,161.433,383,177   c0,15.566-7.804,29.992-21.974,40.62C347.802,227.538,330.391,233,312,233z M312,143c-26.56,0-49,15.57-49,34s22.44,34,49,34   s49-15.57,49-34S338.56,143,312,143z"/>
	<path style="fill:#33CCCC;" d="M117,143c-24.839,0-49.295-2.939-70.725-8.499c-5.88-1.525-9.41-7.529-7.885-13.41   c1.525-5.881,7.528-9.41,13.41-7.885C71.452,118.305,93.998,121,117,121c14.948,0,29.587-1.115,43.509-3.315   c21.829-3.449,44.177-13.565,68.321-30.928C252.26,69.907,281.02,61,312,61c30.18,0,58.358,8.496,81.489,24.568   c18.892,13.127,40.687,22.779,64.777,28.69c5.9,1.447,9.51,7.404,8.062,13.304c-1.447,5.9-7.406,9.511-13.305,8.062   c-26.72-6.555-50.974-17.318-72.089-31.99C361.508,90.135,337.671,83,312,83c-26.343,0-50.66,7.475-70.325,21.618   c-27.002,19.418-52.428,30.8-77.732,34.798C148.889,141.794,133.095,143,117,143z"/>
	<path style="fill:#33CCCC;" d="M490.144,211h-3.423c-0.002,0,0,0-0.002,0c-36.06,0-71.719,12.56-100.402,35.365   C366.334,262.251,339.941,271,312,271c-34.157,0-65.518-12.975-86.038-35.598c-31.25-34.45-76.006-54.277-122.792-54.399L102,181   c-32.909,0-64.526,7.045-91.435,20.375c-5.443,2.697-7.671,9.296-4.974,14.74c2.695,5.443,9.293,7.671,14.739,4.974   C44.22,209.255,72.461,203,101.972,203l1.142,0.003c38.572,0.101,75.534,15.626,102.371,42.781   c-18.814-3.129-38.598-4.784-58.6-4.784c-52.326,0-102.769,11.214-138.394,30.767c-5.325,2.923-7.273,9.61-4.35,14.935   c2.001,3.647,5.767,5.71,9.652,5.71c1.789,0,3.604-0.438,5.283-1.359C51.559,273.225,98.143,263,146.885,263   c40.213,0,79.312,6.973,110.095,19.635c0.159,0.065,0.321,0.113,0.481,0.17C274.261,289.453,292.782,293,312,293   c32.894,0,64.148-10.446,88.008-29.415c24.809-19.724,55.603-30.586,86.713-30.585h3.423c6.075,0,11-4.925,11-11   S496.219,211,490.144,211z"/>
	<path style="fill:#33CCCC;" d="M384.893,397.013c-37.921,0-75.681-6.811-111.753-20.337l-19.38-7.269   c-68.493-25.684-143.743-25.201-211.889,1.358c-5.659,2.208-12.038-0.595-14.243-6.254c-2.206-5.66,0.594-12.038,6.255-14.244   c73.199-28.53,154.03-29.047,227.602-1.46l19.38,7.269c55.572,20.839,115.454,24.556,173.173,10.751   c5.904-1.414,11.844,2.232,13.257,8.14c1.413,5.908-2.23,11.844-8.14,13.257C434.622,394.092,409.722,397.013,384.893,397.013z"/>
	<path style="fill:#33CCCC;" d="M372.855,470.395c-1.487,0-2.998-0.303-4.445-0.944C329.861,452.394,277.865,443,222,443   c-38.693,0-76.311,4.627-108.787,13.381c-5.871,1.582-11.903-1.893-13.484-7.758c-1.581-5.866,1.893-11.903,7.758-13.484   C141.803,425.889,181.401,421,222,421c58.864,0,114.022,10.062,155.312,28.332c5.556,2.458,8.066,8.955,5.608,14.51   C381.103,467.951,377.076,470.395,372.855,470.395z"/>
	<path d="M252,504c-67.312,0-130.596-26.212-178.19-73.81C26.213,382.595,0,319.312,0,252S26.213,121.405,73.81,73.809   C121.404,26.212,184.688,0,252,0s130.596,26.212,178.19,73.81C477.787,121.405,504,184.688,504,252s-26.213,130.595-73.81,178.191   C382.596,477.788,319.312,504,252,504z M252,22c-61.436,0-119.194,23.924-162.634,67.365C45.925,132.806,22,190.564,22,252   s23.925,119.194,67.366,162.634C132.806,458.076,190.564,482,252,482s119.194-23.924,162.634-67.365   C458.075,371.194,482,313.435,482,252s-23.925-119.194-67.366-162.634C371.194,45.924,313.436,22,252,22z"/>
</g>
<path d="M432,293c-15.79-0.292-13.427-24.575,2.15-21.78C446.893,273.428,444.924,293.316,432,293z"/>















</svg>
