<?xml version="1.0" encoding="UTF-8" standalone="no"?>
<!-- Created with Inkscape (http://www.inkscape.org/) -->

<svg
   version="1.1"
   id="svg1497"
   xml:space="preserve"
   width="682.66669"
   height="682.66669"
   viewBox="0 0 682.66669 682.66669"
   xmlns="http://www.w3.org/2000/svg"
   xmlns:svg="http://www.w3.org/2000/svg"><defs
     id="defs1501"><clipPath
       clipPathUnits="userSpaceOnUse"
       id="clipPath1511"><path
         d="M 0,512 H 512 V 0 H 0 Z"
         id="path1509" /></clipPath></defs><g
     id="g1503"
     transform="matrix(1.3333333,0,0,-1.3333333,0,682.66667)"><g
       id="g1505"><g
         id="g1507"
         clip-path="url(#clipPath1511)"><g
           id="g1513"
           transform="translate(497,256)"><path
             d="m 0,0 c 0,-133.101 -107.899,-241 -241,-241 -133.101,0 -241,107.899 -241,241 0,133.101 107.899,241 241,241 C -107.899,241 0,133.101 0,0 Z"
             style="fill:none;stroke:#000000;stroke-width:30;stroke-linecap:butt;stroke-linejoin:miter;stroke-miterlimit:10;stroke-dasharray:none;stroke-opacity:1"
             id="path1515" /></g><g
           id="g1517"
           transform="translate(87.4346,425.7451)"><path
             d="M 0,0 H 148.565"
             style="fill:none;stroke:#000000;stroke-width:30;stroke-linecap:butt;stroke-linejoin:miter;stroke-miterlimit:10;stroke-dasharray:none;stroke-opacity:1"
             id="path1519" /></g><g
           id="g1521"
           transform="translate(28.2769,354)"><path
             d="M 0,0 H 102.973"
             style="fill:none;stroke:#000000;stroke-width:30;stroke-linecap:butt;stroke-linejoin:miter;stroke-miterlimit:10;stroke-dasharray:none;stroke-opacity:1"
             id="path1523" /></g><g
           id="g1525"
           transform="translate(319,387)"><path
             d="M 0,0 H 138.917"
             style="fill:none;stroke:#000000;stroke-width:30;stroke-linecap:butt;stroke-linejoin:miter;stroke-miterlimit:10;stroke-dasharray:none;stroke-opacity:1"
             id="path1527" /></g><g
           id="g1529"
           transform="translate(25.5786,261.8848)"><path
             d="M 0,0 H 149.421"
             style="fill:none;stroke:#000000;stroke-width:30;stroke-linecap:butt;stroke-linejoin:miter;stroke-miterlimit:10;stroke-dasharray:none;stroke-opacity:1"
             id="path1531" /></g><g
           id="g1533"
           transform="translate(486.1436,326.896)"><path
             d="m 0,0 h -224.119 c -18.015,0 -32.619,-14.604 -32.619,-32.62 0,-18.015 14.604,-32.619 32.619,-32.619 h 11.758 c 16.461,0 29.804,-13.344 29.804,-29.805 0,-16.461 -13.343,-29.805 -29.804,-29.805 H -288.4 c -18.866,0 -34.16,-15.294 -34.16,-34.16 0,-18.866 15.294,-34.16 34.16,-34.16 h 257.013"
             style="fill:none;stroke:#000000;stroke-width:30;stroke-linecap:butt;stroke-linejoin:miter;stroke-miterlimit:10;stroke-dasharray:none;stroke-opacity:1"
             id="path1535" /></g><g
           id="g1537"
           transform="translate(402.333,191.5439)"><path
             d="M 0,0 H 90.392"
             style="fill:none;stroke:#000000;stroke-width:30;stroke-linecap:butt;stroke-linejoin:miter;stroke-miterlimit:10;stroke-dasharray:none;stroke-opacity:1"
             id="path1539" /></g><g
           id="g1541"
           transform="translate(104.3335,73.5083)"><path
             d="M 0,0 H 169.017"
             style="fill:none;stroke:#000000;stroke-width:30;stroke-linecap:butt;stroke-linejoin:miter;stroke-miterlimit:10;stroke-dasharray:none;stroke-opacity:1"
             id="path1543" /></g><g
           id="g1545"
           transform="translate(368.7744,191.5439)"><path
             d="M 0,0 H -30.25"
             style="fill:none;stroke:#000000;stroke-width:30;stroke-linecap:butt;stroke-linejoin:miter;stroke-miterlimit:10;stroke-dasharray:none;stroke-opacity:1"
             id="path1547" /></g><g
           id="g1549"
           transform="translate(102.5596,194)"><path
             d="M 0,0 H -30.25"
             style="fill:none;stroke:#000000;stroke-width:30;stroke-linecap:butt;stroke-linejoin:miter;stroke-miterlimit:10;stroke-dasharray:none;stroke-opacity:1"
             id="path1551" /></g><g
           id="g1553"
           transform="translate(435.2676,271.2026)"><path
             d="M 0,0 H -30.25"
             style="fill:none;stroke:#000000;stroke-width:30;stroke-linecap:butt;stroke-linejoin:miter;stroke-miterlimit:10;stroke-dasharray:none;stroke-opacity:1"
             id="path1555" /></g><g
           id="g1557"
           transform="translate(288,387)"><path
             d="M 0,0 H -28.833"
             style="fill:none;stroke:#000000;stroke-width:30;stroke-linecap:butt;stroke-linejoin:miter;stroke-miterlimit:10;stroke-dasharray:none;stroke-opacity:1"
             id="path1559" /></g><g
           id="g1561"
           transform="translate(192.4165,354)"><path
             d="M 0,0 H -28.833"
             style="fill:none;stroke:#000000;stroke-width:30;stroke-linecap:butt;stroke-linejoin:miter;stroke-miterlimit:10;stroke-dasharray:none;stroke-opacity:1"
             id="path1563" /></g></g></g></g></svg>
