<?xml version="1.0"?>
<svg xmlns="http://www.w3.org/2000/svg" width="512" height="512" viewBox="0 0 128 128"><g><path d="M56.917,38.926a4.727,4.727,0,0,0,6.595-.1l.066-.066,4.332,4.333a40,40,0,0,1,9.775,16.043L81.474,71a1.749,1.749,0,0,0,1.666,1.217,1.664,1.664,0,0,0,.243-.017,1.75,1.75,0,0,0,1.507-1.679l.345-11.271A43.481,43.481,0,0,0,73.773,28.565l.437-.438a4.748,4.748,0,0,0,0-6.717L63.843,11.042a4.749,4.749,0,0,0-6.718,0l-.437.437A43.451,43.451,0,0,0,26,.018L14.73.363a1.75,1.75,0,0,0-.478,3.416L26.117,7.567A40,40,0,0,1,42.16,17.343l4.332,4.332-.065.065a4.725,4.725,0,0,0-.1,6.6L2.99,68.909A9.447,9.447,0,0,0,9.442,85.252H9.6a9.374,9.374,0,0,0,6.74-2.99Zm24.82,20.218L81.7,60.216l-.685-2.144A43.516,43.516,0,0,0,70.385,40.618l-4.332-4.332,5.25-5.251A39.982,39.982,0,0,1,81.737,59.144ZM60.484,13.15a1.242,1.242,0,0,1,.884.367L71.736,23.885h0a1.251,1.251,0,0,1,0,1.768L70.093,27.3,62.34,35.048l-1.3,1.3a1.278,1.278,0,0,1-1.768,0L48.9,25.982a1.249,1.249,0,0,1,0-1.767l1.3-1.3,7.753-7.753L59.6,13.517A1.239,1.239,0,0,1,60.484,13.15Zm-15.85,1.718A43.5,43.5,0,0,0,27.181,4.233l-2.144-.684,1.072-.033A40.025,40.025,0,0,1,54.217,13.949L48.967,19.2ZM9.545,81.752A5.947,5.947,0,0,1,5.383,71.464L48.791,30.822l5.639,5.639L13.789,79.87A5.9,5.9,0,0,1,9.545,81.752Z"/><path d="M127.21,46.782a1.754,1.754,0,0,0-1.656-.143l-22.5,9.747a1.762,1.762,0,0,0-.74.6L87.587,78.107H67.25a1.747,1.747,0,0,0-1.462.789L54.061,96.742H31.25a1.751,1.751,0,0,0-1.551.94L15.2,125.436A1.75,1.75,0,0,0,16.75,128h109.5a1.751,1.751,0,0,0,1.75-1.75v-78A1.751,1.751,0,0,0,127.21,46.782ZM124.5,124.5H19.639L32.31,100.242h22.7a1.748,1.748,0,0,0,1.463-.789L68.194,81.607H88.5a1.75,1.75,0,0,0,1.435-.749L104.9,59.4l19.6-8.49Z"/><path d="M91.994,58.21a1.749,1.749,0,0,0,2.466-.2l12.5-14.75a1.75,1.75,0,1,0-2.67-2.262l-12.5,14.75A1.749,1.749,0,0,0,91.994,58.21Z"/><path d="M90.812,47.1a1.784,1.784,0,0,0,.315.029,1.751,1.751,0,0,0,1.72-1.438l2-11a1.75,1.75,0,0,0-3.444-.626l-2,11A1.75,1.75,0,0,0,90.812,47.1Z"/><path d="M53.252,70.4a1.749,1.749,0,0,0,1.678,1.819L74.43,73l.072,0a1.75,1.75,0,0,0,.068-3.5l-19.5-.782A1.753,1.753,0,0,0,53.252,70.4Z"/><path d="M69.866,63.9a1.751,1.751,0,0,0,1.518-3.155l-9.5-4.57a1.75,1.75,0,1,0-1.518,3.154Z"/><path d="M50.824,107.519a3.839,3.839,0,0,0-5.3,0l-2.408,2.408a3.749,3.749,0,0,0,0,5.3l2.408,2.408a3.748,3.748,0,0,0,5.3,0l2.409-2.408a3.748,3.748,0,0,0,0-5.3Zm-.066,5.235h0l-2.409,2.409a.218.218,0,0,1-.353,0l-2.409-2.41a.244.244,0,0,1-.073-.176.249.249,0,0,1,.073-.177L48,109.992a.244.244,0,0,1,.176-.073.246.246,0,0,1,.177.074l2.409,2.409a.249.249,0,0,1,0,.352Z"/><path d="M103.54,83.4l2.409,2.409a3.755,3.755,0,0,0,5.3,0l2.409-2.409h0a3.752,3.752,0,0,0,0-5.3l-2.408-2.408a3.754,3.754,0,0,0-5.3,0l-2.409,2.409A3.756,3.756,0,0,0,103.54,83.4Zm2.475-2.828,2.408-2.409a.25.25,0,0,1,.178-.073.247.247,0,0,1,.176.073l2.408,2.408a.25.25,0,0,1,0,.354h0l-2.407,2.409a.253.253,0,0,1-.355,0l-2.408-2.408A.25.25,0,0,1,106.015,80.567Z"/><path d="M78.56,91.105a3.753,3.753,0,0,0-5.3,0l-3.584,3.584a3.75,3.75,0,0,0,0,5.3l3.584,3.583a3.753,3.753,0,0,0,5.3,0l3.584-3.583a3.75,3.75,0,0,0,0-5.3Zm1.109,6.412h0L76.085,101.1a.251.251,0,0,1-.354,0l-3.583-3.584a.25.25,0,0,1,0-.353l3.583-3.584a.25.25,0,0,1,.178-.073.245.245,0,0,1,.176.073l3.584,3.584a.25.25,0,0,1,0,.353Z"/><path d="M105.855,100.213a3.838,3.838,0,0,0-5.3,0L96.968,103.8a3.754,3.754,0,0,0,0,5.3l3.584,3.584a3.749,3.749,0,0,0,5.3,0l3.584-3.584a3.754,3.754,0,0,0,0-5.3Zm1.108,6.411-3.583,3.584a.219.219,0,0,1-.354,0l-3.583-3.584a.25.25,0,0,1,0-.353l3.584-3.585a.251.251,0,0,1,.353,0l3.583,3.584A.25.25,0,0,1,106.963,106.624Z"/></g></svg>
