<?xml version="1.0" encoding="UTF-8"?>
<!-- Generator: Adobe Illustrator 26.5.0, SVG Export Plug-In . SVG Version: 6.00 Build 0)  -->
<svg xmlns="http://www.w3.org/2000/svg" xmlns:xlink="http://www.w3.org/1999/xlink" version="1.1" id="Capa_1" x="0px" y="0px" viewBox="0 0 504 504" style="enable-background:new 0 0 504 504;" xml:space="preserve" width="512" height="512">
<g id="Moon_1_">
	<path d="M252,504c-67.044,0-130.254-26.286-177.984-74.016C26.286,382.254,0,319.044,0,252S26.286,121.746,74.016,74.016   C121.746,26.286,184.956,0,252,0c67.045,0,130.254,26.286,177.984,74.016C477.714,121.746,504,184.956,504,252   s-26.286,130.254-74.016,177.984C382.254,477.714,319.045,504,252,504z M252,22C125.178,22,22,125.177,22,252s103.178,230,230,230   s230-103.177,230-230S378.822,22,252,22z"/>
	<path style="fill:#33CCCC;" d="M192,413c-39.149,0-71-31.85-71-71s31.851-71,71-71s71,31.85,71,71S231.149,413,192,413z M192,293   c-27.019,0-49,21.981-49,49s21.981,49,49,49s49-21.981,49-49S219.019,293,192,293z"/>
	<path style="fill:#33CCCC;" d="M132,203c-22.607,0-41-18.393-41-41s18.393-41,41-41s41,18.393,41,41S154.607,203,132,203z M132,143   c-10.477,0-19,8.523-19,19s8.523,19,19,19s19-8.523,19-19S142.477,143,132,143z"/>
	<path style="fill:#33CCCC;" d="M372,353c-22.607,0-41-18.393-41-41s18.393-41,41-41s41,18.393,41,41S394.607,353,372,353z M372,293   c-10.477,0-19,8.523-19,19s8.523,19,19,19s19-8.523,19-19S382.477,293,372,293z"/>
	<path style="fill:#33CCCC;" d="M357,233c-30.879,0-56-25.122-56-56s25.121-56,56-56s56,25.122,56,56S387.879,233,357,233z M357,143   c-18.748,0-34,15.252-34,34s15.252,34,34,34s34-15.252,34-34S375.748,143,357,143z"/>
</g>
<path d="M222,233c-15.809-0.286-13.406-24.609,2.151-21.78C236.893,213.423,234.923,233.317,222,233z"/>
<path d="M252,83c-12.922,0.31-14.897-19.571-2.15-21.78C265.409,58.397,267.803,82.714,252,83z"/>
<path d="M312,413c-15.805-0.284-13.405-24.608,2.15-21.78C326.892,393.429,324.921,413.313,312,413z"/>















</svg>
