<?xml version="1.0" encoding="UTF-8"?>
<!-- Generator: Adobe Illustrator 24.2.3, SVG Export Plug-In . SVG Version: 6.00 Build 0)  -->
<svg xmlns="http://www.w3.org/2000/svg" xmlns:xlink="http://www.w3.org/1999/xlink" version="1.1" id="Capa_1" x="0px" y="0px" viewBox="0 0 512.04 512.04" style="enable-background:new 0 0 512.04 512.04;" xml:space="preserve" width="512" height="512">
<g>
	<g>
		<path d="M477.77,128.021c0,0,0-0.001,0-0.001c-18.746-35.133-80.578-37.748-133.551-24.689    c-15.308-52.578-48.201-104.52-88.155-103.31c-70.502,3.584-99.095,123.552-105.982,194.811    C91.881,236.263,2.154,321.292,34.359,384.021c21.723,39.043,89.422,35.459,133.552,24.688    c15.308,52.578,48.202,104.52,88.155,103.31c70.503-3.584,99.095-123.552,105.982-194.811    C420.224,275.71,509.993,190.797,477.77,128.021z M196.995,86.899c43.477-106.675,98.149-68.331,125.909,21.938    c-47.425,13.402-103.025,39.703-148.736,69.554C178.812,144.271,186.536,113.047,196.995,86.899z M343.065,256.02    c0,16.695-0.68,33.116-1.997,49.076c-46.821,32.742-107.227,62.707-157.752,76.93c-12.945-50.859-17.202-118.171-12.254-175.082    c46.821-32.742,107.227-62.707,157.752-76.93C338.095,167.421,343.065,210.723,343.065,256.02z M139.137,391.737    c-91.733,13.219-116.379-29.489-59.069-102.314c17.414-22.131,40.592-44.431,67.819-65.512    c-2.998,54.524,2.026,115.8,14.135,163.586C154.205,389.247,146.563,390.667,139.137,391.737z M315.134,425.14    c-43.475,106.675-98.149,68.331-125.909-21.938c47.425-13.402,103.026-39.702,148.736-69.554    C333.318,367.769,325.594,398.993,315.134,425.14z M432.062,222.617c-17.415,22.132-40.593,44.432-67.819,65.512    c2.998-54.524-2.026-115.8-14.135-163.586C434.419,105.031,506.173,126.171,432.062,222.617z"/>
		<path d="M256.065,299.686c24.078,0,43.667-19.589,43.667-43.667c-2.399-57.929-84.943-57.913-87.334,0    C212.399,280.098,231.987,299.686,256.065,299.686z M256.065,234.353c11.947,0,21.667,9.72,21.667,21.667    c-1.19,28.743-42.147,28.735-43.334,0C234.399,244.073,244.118,234.353,256.065,234.353z"/>
	</g>
	<g>
		<path style="fill:#33CCCC;" d="M402.611,416.027c-114.967-1.945-269.149-90.869-339.833-179.804    C-7.597,148.992,31.52,81.183,142.276,98.528c50.704,7.305,110.471,29.714,168.289,63.097    c74.077,42.155,204.716,145.303,167.205,222.394c0,0,0,0.001,0,0.001C465.628,405.048,439.44,416.027,402.611,416.027z     M109.273,117.991c-73.295,0.186-74.962,46.396-29.205,104.625c29.99,38.113,77.045,76.733,132.497,108.745    c60.173,36.612,207.375,94.942,246.153,41.659l0,0c10.521-18.229,0.807-48.699-26.655-83.598    C365.464,205.587,217.615,120.094,109.273,117.991z M468.244,378.52h0.01H468.244z"/>
	</g>
</g>















</svg>
