<?xml version="1.0" encoding="UTF-8" standalone="no"?>
<!-- Created with Inkscape (http://www.inkscape.org/) -->

<svg
   version="1.1"
   id="svg249"
   xml:space="preserve"
   width="682.66669"
   height="682.66669"
   viewBox="0 0 682.66669 682.66669"
   xmlns="http://www.w3.org/2000/svg"
   xmlns:svg="http://www.w3.org/2000/svg"><defs
     id="defs253"><clipPath
       clipPathUnits="userSpaceOnUse"
       id="clipPath263"><path
         d="M 0,512 H 512 V 0 H 0 Z"
         id="path261" /></clipPath></defs><g
     id="g255"
     transform="matrix(1.3333333,0,0,-1.3333333,0,682.66667)"><g
       id="g257"><g
         id="g259"
         clip-path="url(#clipPath263)"><g
           id="g265"
           transform="translate(176,426)"><path
             d="m 0,0 c 0,-16.568 -13.432,-30 -30,-30 -16.568,0 -30,13.432 -30,30 0,16.568 13.432,30 30,30 C -13.432,30 0,16.568 0,0 Z"
             style="fill:none;stroke:#000000;stroke-width:20;stroke-linecap:round;stroke-linejoin:round;stroke-miterlimit:10;stroke-dasharray:none;stroke-opacity:1"
             id="path267" /></g><g
           id="g269"
           transform="translate(414.7578,196)"><path
             d="m 0,0 h -88.758 c -11.046,0 -20,-8.954 -20,-20 0,-11.046 8.954,-20 20,-20 H -10.4 c 5.107,12.615 8.657,26.026 10.4,40"
             style="fill:#000000;fill-opacity:1;fill-rule:nonzero;stroke:none"
             id="path271" /></g><g
           id="g273"
           transform="translate(226,316)"><path
             d="m 0,0 h -94.893 c -9.647,-12.032 -17.589,-25.486 -23.465,-40 H 0 c 11.046,0 20,8.954 20,20 C 20,-8.954 11.046,0 0,0"
             style="fill:#000000;fill-opacity:1;fill-rule:nonzero;stroke:none"
             id="path275" /></g><g
           id="g277"
           transform="translate(150.1836,96)"><path
             d="m 0,0 h 105.816 c 11.046,0 20,8.954 20,20 0,11.046 -8.954,20 -20,20 h -80 c -11.045,0 -20,8.954 -20,20 0,11.046 8.955,20 20,20 h 30 c 11.046,0 20,8.954 20,20 0,11.046 -8.954,20 -20,20 h -110 C -54.184,72.208 -33.222,29.318 0,0"
             style="fill:#000000;fill-opacity:1;fill-rule:nonzero;stroke:none"
             id="path279" /></g><g
           id="g281"
           transform="translate(403.5439,278)"><path
             d="m 0,0 c 8.022,-19.067 12.456,-40.016 12.456,-62 0,-88.366 -71.635,-160 -160,-160 -88.366,0 -160,71.634 -160,160 0,88.366 71.634,160 160,160 13.094,0 25.819,-1.573 38,-4.54"
             style="fill:none;stroke:#000000;stroke-width:20;stroke-linecap:round;stroke-linejoin:round;stroke-miterlimit:10;stroke-dasharray:none;stroke-opacity:1"
             id="path283" /></g><g
           id="g285"
           transform="translate(366,366)"><path
             d="m 0,0 c 0,-11.046 -8.954,-20 -20,-20 -11.046,0 -20,8.954 -20,20 0,11.046 8.954,20 20,20 C -8.954,20 0,11.046 0,0"
             style="fill:#000000;fill-opacity:1;fill-rule:nonzero;stroke:none"
             id="path287" /></g><g
           id="g289"
           transform="translate(386,396)"><path
             d="m 0,0 c 0,-5.523 -4.478,-10 -10,-10 -5.522,0 -10,4.477 -10,10 0,5.523 4.478,10 10,10 C -4.478,10 0,5.523 0,0"
             style="fill:#000000;fill-opacity:1;fill-rule:nonzero;stroke:none"
             id="path291" /></g><g
           id="g293"
           transform="translate(416,316)"><path
             d="m 0,0 c 0,-5.523 -4.478,-10 -10,-10 -5.522,0 -10,4.477 -10,10 0,5.523 4.478,10 10,10 C -4.478,10 0,5.523 0,0"
             style="fill:#000000;fill-opacity:1;fill-rule:nonzero;stroke:none"
             id="path295" /></g><g
           id="g297"
           transform="translate(371,326)"><path
             d="m 0,0 c 0,-2.761 -2.238,-5 -5,-5 -2.762,0 -5,2.239 -5,5 0,2.761 2.238,5 5,5 2.762,0 5,-2.239 5,-5"
             style="fill:#000000;fill-opacity:1;fill-rule:nonzero;stroke:none"
             id="path299" /></g><g
           id="g301"
           transform="translate(456,356)"><path
             d="m 0,0 c 0,-44.183 -35.817,-80 -80,-80 -44.183,0 -80,35.817 -80,80 0,44.183 35.817,80 80,80 C -35.817,80 0,44.183 0,0 Z"
             style="fill:none;stroke:#000000;stroke-width:20;stroke-linecap:round;stroke-linejoin:round;stroke-miterlimit:10;stroke-dasharray:none;stroke-opacity:1"
             id="path303" /></g><g
           id="g305"
           transform="translate(62,156)"><path
             d="m 0,0 c 0,-11.046 -8.954,-20 -20,-20 -11.046,0 -20,8.954 -20,20 0,11.046 8.954,20 20,20 C -8.954,20 0,11.046 0,0 Z"
             style="fill:none;stroke:#000000;stroke-width:20;stroke-linecap:round;stroke-linejoin:round;stroke-miterlimit:10;stroke-dasharray:none;stroke-opacity:1"
             id="path307" /></g><g
           id="g309"
           transform="translate(490,246)"><path
             d="m 0,0 c 0,-11.046 -8.954,-20 -20,-20 -11.046,0 -20,8.954 -20,20 0,11.046 8.954,20 20,20 C -8.954,20 0,11.046 0,0 Z"
             style="fill:none;stroke:#000000;stroke-width:20;stroke-linecap:round;stroke-linejoin:round;stroke-miterlimit:10;stroke-dasharray:none;stroke-opacity:1"
             id="path311" /></g><g
           id="g313"
           transform="translate(462,136)"><path
             d="M 0,0 C 0,-22.091 -17.908,-40 -40,-40"
             style="fill:none;stroke:#000000;stroke-width:20;stroke-linecap:round;stroke-linejoin:round;stroke-miterlimit:10;stroke-dasharray:none;stroke-opacity:1"
             id="path315" /></g><g
           id="g317"
           transform="translate(462,136)"><path
             d="M 0,0 C 0,-22.091 17.908,-40 40,-40"
             style="fill:none;stroke:#000000;stroke-width:20;stroke-linecap:round;stroke-linejoin:round;stroke-miterlimit:10;stroke-dasharray:none;stroke-opacity:1"
             id="path319" /></g><g
           id="g321"
           transform="translate(462,56)"><path
             d="M 0,0 C 0,22.091 17.908,40 40,40"
             style="fill:none;stroke:#000000;stroke-width:20;stroke-linecap:round;stroke-linejoin:round;stroke-miterlimit:10;stroke-dasharray:none;stroke-opacity:1"
             id="path323" /></g><g
           id="g325"
           transform="translate(462,56)"><path
             d="M 0,0 C 0,22.091 -17.908,40 -40,40"
             style="fill:none;stroke:#000000;stroke-width:20;stroke-linecap:round;stroke-linejoin:round;stroke-miterlimit:10;stroke-dasharray:none;stroke-opacity:1"
             id="path327" /></g><g
           id="g329"
           transform="translate(50,376)"><path
             d="M 0,0 C 0,-22.091 -17.909,-40 -40,-40"
             style="fill:none;stroke:#000000;stroke-width:20;stroke-linecap:round;stroke-linejoin:round;stroke-miterlimit:10;stroke-dasharray:none;stroke-opacity:1"
             id="path331" /></g><g
           id="g333"
           transform="translate(50,376)"><path
             d="M 0,0 C 0,-22.091 17.909,-40 40,-40"
             style="fill:none;stroke:#000000;stroke-width:20;stroke-linecap:round;stroke-linejoin:round;stroke-miterlimit:10;stroke-dasharray:none;stroke-opacity:1"
             id="path335" /></g><g
           id="g337"
           transform="translate(50,296)"><path
             d="M 0,0 C 0,22.091 17.909,40 40,40"
             style="fill:none;stroke:#000000;stroke-width:20;stroke-linecap:round;stroke-linejoin:round;stroke-miterlimit:10;stroke-dasharray:none;stroke-opacity:1"
             id="path339" /></g><g
           id="g341"
           transform="translate(50,296)"><path
             d="M 0,0 C 0,22.091 -17.909,40 -40,40"
             style="fill:none;stroke:#000000;stroke-width:20;stroke-linecap:round;stroke-linejoin:round;stroke-miterlimit:10;stroke-dasharray:none;stroke-opacity:1"
             id="path343" /></g></g></g></g></svg>
