<?xml version="1.0" encoding="UTF-8"?>
<!-- Generator: Adobe Illustrator 27.2.0, SVG Export Plug-In . SVG Version: 6.00 Build 0)  -->
<svg xmlns="http://www.w3.org/2000/svg" xmlns:xlink="http://www.w3.org/1999/xlink" version="1.1" id="Capa_1" x="0px" y="0px" viewBox="0 0 512 512" style="enable-background:new 0 0 512 512;" xml:space="preserve" width="512" height="512">
<g id="_x35_2-plus">
	<path style="fill:#33CCCC;" d="M256,511.292c-143.551,0-256-112.448-256-256c8.713-339.486,503.334-339.406,512,0.004   C512,398.844,399.551,511.292,256,511.292z M256,21.292c-131.215,0-234,102.785-234,234c7.965,310.312,460.078,310.238,468-0.003   C490,124.077,387.215,21.292,256,21.292z"/>
	<path d="M380.576,244.292H267V130.716c-0.541-14.579-21.464-14.568-22,0v113.576H131.424c-14.579,0.541-14.568,21.464,0,22H245   v113.576c0.541,14.579,21.464,14.568,22,0V266.292h113.576C395.155,265.751,395.144,244.828,380.576,244.292z"/>
</g>















</svg>
