<?xml version="1.0" encoding="UTF-8" standalone="no"?>
<!-- Created with Inkscape (http://www.inkscape.org/) -->

<svg
   version="1.1"
   id="svg651"
   xml:space="preserve"
   width="682.66669"
   height="682.66669"
   viewBox="0 0 682.66669 682.66669"
   xmlns="http://www.w3.org/2000/svg"
   xmlns:svg="http://www.w3.org/2000/svg"><defs
     id="defs655"><clipPath
       clipPathUnits="userSpaceOnUse"
       id="clipPath677"><path
         d="M 0,512 H 512 V 0 H 0 Z"
         id="path675" /></clipPath></defs><g
     id="g657"
     transform="matrix(1.3333333,0,0,-1.3333333,0,682.66667)"><g
       id="g659"
       transform="translate(192.7285,419.8152)"><path
         d="M 0,0 -0.009,-11.876"
         style="fill:none;stroke:#000000;stroke-width:15;stroke-linecap:round;stroke-linejoin:round;stroke-miterlimit:10;stroke-dasharray:none;stroke-opacity:1"
         id="path661" /></g><g
       id="g663"
       transform="translate(319.3304,419.6914)"><path
         d="M 0,0 -0.009,-11.876"
         style="fill:none;stroke:#000000;stroke-width:15;stroke-linecap:round;stroke-linejoin:round;stroke-miterlimit:10;stroke-dasharray:none;stroke-opacity:1"
         id="path665" /></g><g
       id="g667"
       transform="translate(239.3263,402.6187)"><path
         d="M 0,0 33.378,-0.029"
         style="fill:none;stroke:#000000;stroke-width:15;stroke-linecap:round;stroke-linejoin:round;stroke-miterlimit:10;stroke-dasharray:none;stroke-opacity:1"
         id="path669" /></g><g
       id="g671"><g
         id="g673"
         clip-path="url(#clipPath677)"><g
           id="g679"
           transform="translate(504.5,256)"><path
             d="m 0,0 c 0,-137.243 -111.257,-248.5 -248.5,-248.5 -137.243,0 -248.5,111.257 -248.5,248.5 0,137.243 111.257,248.5 248.5,248.5 C -111.257,248.5 0,137.243 0,0 Z"
             style="fill:none;stroke:#000000;stroke-width:15;stroke-linecap:round;stroke-linejoin:round;stroke-miterlimit:10;stroke-dasharray:none;stroke-opacity:1"
             id="path681" /></g><g
           id="g683"
           transform="translate(424.7045,259)"><path
             d="M 0,0 H 79.758"
             style="fill:none;stroke:#000000;stroke-width:15;stroke-linecap:round;stroke-linejoin:round;stroke-miterlimit:10;stroke-dasharray:none;stroke-opacity:1"
             id="path685" /></g><g
           id="g687"
           transform="translate(490.2814,339)"><path
             d="m 0,0 h -167.232 c -11.046,0 -20,-8.954 -20,-20 0,-11.046 -8.955,-20 -20,-20 h -86.667 c -11.046,0 -20,-8.954 -20,-20 0,-11.046 8.954,-20 20,-20 h 200.322"
             style="fill:none;stroke:#000000;stroke-width:15;stroke-linecap:round;stroke-linejoin:round;stroke-miterlimit:10;stroke-dasharray:none;stroke-opacity:1"
             id="path689" /></g><g
           id="g691"
           transform="translate(206.7193,66)"><path
             d="M 0,0 H 209.42"
             style="fill:none;stroke:#000000;stroke-width:15;stroke-linecap:round;stroke-linejoin:round;stroke-miterlimit:10;stroke-dasharray:none;stroke-opacity:1"
             id="path693" /></g><g
           id="g695"
           transform="translate(95.8499,66)"><path
             d="M 0,0 H 82.869"
             style="fill:none;stroke:#000000;stroke-width:15;stroke-linecap:round;stroke-linejoin:round;stroke-miterlimit:10;stroke-dasharray:none;stroke-opacity:1"
             id="path697" /></g><g
           id="g699"
           transform="translate(492.3203,179)"><path
             d="m 0,0 h -133.938 c -11.046,0 -20,-8.954 -20,-20 0,-11.046 -8.954,-20 -20,-20 h -281.655"
             style="fill:none;stroke:#000000;stroke-width:15;stroke-linecap:round;stroke-linejoin:round;stroke-miterlimit:10;stroke-dasharray:none;stroke-opacity:1"
             id="path701" /></g><g
           id="g703"
           transform="translate(166.8333,211.5)"><path
             d="m 0,0 c 0,-22.091 -17.909,-40 -40,-40 -22.091,0 -40,17.909 -40,40 0,22.091 17.909,40 40,40 C -17.909,40 0,22.091 0,0 Z"
             style="fill:none;stroke:#000000;stroke-width:15;stroke-linecap:round;stroke-linejoin:round;stroke-miterlimit:10;stroke-dasharray:none;stroke-opacity:1"
             id="path705" /></g><g
           id="g707"
           transform="translate(304.524,201.5)"><path
             d="m 0,0 c 0,-11.046 -8.954,-20 -20,-20 -11.046,0 -20,8.954 -20,20 0,11.046 8.954,20 20,20 C -8.954,20 0,11.046 0,0 Z"
             style="fill:none;stroke:#000000;stroke-width:15;stroke-linecap:round;stroke-linejoin:round;stroke-miterlimit:10;stroke-dasharray:none;stroke-opacity:1"
             id="path709" /></g><g
           id="g711"
           transform="translate(82.9476,279.2112)"><path
             d="m 0,0 c 0,-11.046 -8.954,-20 -20,-20 -11.046,0 -20,8.954 -20,20 0,11.046 8.954,20 20,20 C -8.954,20 0,11.046 0,0 Z"
             style="fill:none;stroke:#000000;stroke-width:15;stroke-linecap:round;stroke-linejoin:round;stroke-miterlimit:10;stroke-dasharray:none;stroke-opacity:1"
             id="path713" /></g></g></g></g></svg>
