<svg id="Layer_1" enable-background="new 0 0 128 128" height="512" viewBox="0 0 128 128" width="512" xmlns="http://www.w3.org/2000/svg"><g><path d="m104.2 92.7c.3.1.7.2 1.1.1 3.6-.8 14.3-3.2 14.3-3.2.6-.1 1.2-.7 1.4-1.5l2.4-18.9c0-.1 0-.3 0-.4 0 0-2.3-19.2-3-25.5 0-.3-.1-.6-.3-.8-2.1-2.9-8.6-12.2-8.6-12.2l-3.5-15.4c-.1-.5-.5-1-.9-1.2 0 0-9.6-4.8-11.8-5.9-.1-.1-.3-.1-.4-.1-2.1-.5-9.9-2.5-12.2-3.1-.2-.1-.4 0-.7 0-1.1.2-21 2.8-22.8 3.1-.3 0-.6.2-.9.5-.6.6-11.4 11.4-12.5 12.5-.2.2-.4.5-.4.7-.4 1.7-1.9 7.2-3.9 14.5 0 0-9.2-1.4-12.3-1.9-.3-.1-.5.1-.7.1-3.9 1.1-15.6 4.6-15.6 4.6-.5.2-.9.5-1.1 1 0 0-3.5 8.6-4.6 11.4-.1.2-.1.3-.1.5-.6 6.8-2.5 27.1-2.5 27.1-.1.6.2 1.1.6 1.5l6.1 5.2s2.8 16.2 3.8 21.5c0 .2.1.5.3.7 1.4 2 4.2 6.1 5.6 8 .3.5.8.8 1.4.8 2.8.1 11 .4 11 .4s18.5 5.1 23.9 6.6c.3.1.5.1.8 0 2.7-.5 11.2-2 11.2-2s6.1.6 8.2.8c.4 0 .8-.1 1.1-.3.5-.4 6.4-4.6 8.6-6.1.4-.3.7-.8.7-1.4l.4-12.9 4.7-13.7s8.6 3.7 11.2 4.9zm-22.1-84.6 11.7 2.9 11 5.4 3.4 14.9c.1.2.1.4.3.6l8.5 12.1 2.9 24.9-1.7 13-5.2-10.4s-1.4-11.3-1.9-15c0-.1-.1-.5-.2-.7-14.6-23.8-7.6-12.4-9.6-15.7-.1-.2-.4-.4-.6-.6l-5.5-3.3 6.9-1.7c.9-.2 1.5-1.2 1.2-2.1-.2-.9-1.2-1.5-2.1-1.3l-9.6 2.3-7.9-17.3c-.2-.4-.6-.8-1-.9l-15.6-5.3zm-34 16.5 10.4 6.7c.4.2.8.3 1.2.3l8.3-1.3 4.8 3.4c.8.5 1.9.3 2.4-.4.5-.8.4-1.9-.4-2.4l-5.4-3.8c-.4-.3-.8-.4-1.3-.3l-8.3 1.3-10.1-6.4 10.3-10.3 20.9 7.1c1.9 4.1 8 17.7 8.3 18.1.1.2.3.4.5.6.4.3 6.3 3.8 8.9 5.3l8 13.1-7.9 1.4c-.6.1-1.1.5-1.3 1.1l-3 7.4c-.4.9.1 1.9 1 2.3s1.9-.1 2.3-1l2.7-6.5 7.6-1.4 1.7 13.5c0 .2.1.4.2.6l6.9 13.8-11.6 2.6-11-4.9 2-5.8c.2-.6.1-1.2-.3-1.7l-11-13-8.1-14.1c-.2-.3-.4-.5-.7-.7l-22.6-11.6c-.2-.1-.4-.1-.5-.2l-8-1.2zm21.4 93.3c-.2 0-.5 0-.7 0-2.7.5-11 2-11 2l-19.9-5.5 10.9-6.9c.3-.2.5-.4.7-.8l4.2-9.3c.4-.9 0-1.9-.9-2.3s-1.9 0-2.3.9l-4 8.8-13.3 8.4-9.8-.4-4.9-7-3.8-21.7c-.1-.4-.3-.8-.6-1l-5.9-5 2.4-26 4.2-10.5 13.6-4 13.8 19.8-5.3 8.6s-5.4 2.9-7.3 3.8c-.5.2-.8.7-.9 1.1-.6 2.4-2.3 9.7-2.3 9.7-.2.9.3 1.9 1.3 2.1.9.2 1.9-.3 2.1-1.3l2.1-9s5.2-2.7 7-3.7c.3-.1.6-.4.7-.6 1.3-2.2 5.5-9 5.5-9l10.8 1.1c6.2 11.9 5.9 11.3 6.1 11.6l10.8 12.8s-2.4 6.6-3.5 9.5c-.1.3-.2.7-.1 1 1.5 5.7 5.9 23.2 5.9 23.2s-4.1-.3-5.6-.4zm15.3-17.3c-.1.2-.1.3-.1.5l-.4 12.3-5.7 4.1-5.8-22.5 3.6-10c.2-.6.1-1.2-.3-1.7l-11.2-13.4-6.3-11.9c-.3-.5-.8-.9-1.4-.9l-12.1-1.3-12.4-17.8 19.5 2.8 21.8 11.3 6.7 11.7-8.9 2c-.9.2-1.5 1.1-1.3 2.1.2.8.9 1.4 1.7 1.4.9 0 6.1-1.3 10.5-2.3l9.8 11.6z"/><path d="m121.9 97.2s-3.8-.5-5.1-.6c-.1 0-.3 0-.4 0-1.5.2-5.6.8-5.6.8-1 .1-1.7 1.1-1.5 2.1l1 4.5-.4 2.8c-.1.9.5 1.8 1.4 2l5.7 1.3c.8.2 1.6-.2 2-1l4.3-9.4c.5-1.1-.2-2.4-1.4-2.5zm-5.5 9.1-2.8-.6.2-1.5c0-.2 0-.4 0-.6l-.7-2.9 3.5-.5 2.4.3z"/><path d="m26.8 20.4 8 1.7c.9.2 1.8-.4 2.1-1.3l1.3-5.1 3.9-4c.6-.6.7-1.4.2-2.1l-2.3-3.9c-.3-.5-.8-.8-1.4-.8l-4.9-.3c-.4 0-.8.1-1.1.3l-6.4 4.1c-.5.3-.8.9-.8 1.5v8.2c0 .8.6 1.6 1.4 1.7zm2.1-9 5.1-3.3 3.5.2 1.1 1.8-3.3 3.4c-.2.2-.4.5-.4.8l-1 4-5-1z"/><path d="m6.1 27 11.6 1.5c1.2.1 2.2-.9 1.9-2.1l-1.1-5.6c-.1-.5-.5-1-1-1.2l-6.9-3.3c-.6-.4-1.4-.3-1.9.2l-3.5 3.2c-.4.3-.6.8-.6 1.3v4.2c0 .9.6 1.7 1.5 1.8zm2-5.2 2.1-1.9 5 2.4.5 2.4-7.6-1z"/><path d="m104.5 110c-.4-.5-.9-.7-1.5-.7l-5.2.4c-.7.1-1.2.5-1.5 1.1l-2.5 6.1c-.3.8 0 1.7.7 2.2l4.6 2.8c.6.4 1.4.3 2-.1l6.3-5.2c.7-.6.8-1.7.3-2.4zm-4.5 8.3-2.3-1.4 1.5-3.7 3.1-.2 1.6 2.1z"/></g></svg>