<?xml version="1.0" encoding="iso-8859-1"?>
<!-- Generator: Adobe Illustrator 27.0.0, SVG Export Plug-In . SVG Version: 6.00 Build 0)  -->
<svg version="1.1" id="Capa_1" xmlns="http://www.w3.org/2000/svg" xmlns:xlink="http://www.w3.org/1999/xlink" x="0px" y="0px"
	 viewBox="0 0 512.021 512.021" style="enable-background:new 0 0 512.021 512.021;" xml:space="preserve">
<g>
	<g>
		<path style="fill:#33CCCC;" d="M256,404.34c-81.795,0-148.34-66.545-148.34-148.34S174.205,107.66,256,107.66
			S404.34,174.205,404.34,256c0,24.075-5.947,48.049-17.198,69.331c-2.84,5.371-9.496,7.423-14.866,4.583
			c-5.371-2.839-7.423-9.495-4.583-14.866c9.583-18.125,14.647-38.544,14.647-59.049c0-69.664-56.676-126.34-126.34-126.34
			S129.66,186.336,129.66,256S186.336,382.34,256,382.34c20.072,0,40.11-4.866,57.947-14.072c5.397-2.786,12.033-0.669,14.82,4.73
			c2.786,5.398,0.668,12.034-4.73,14.82C303.094,398.627,279.567,404.34,256,404.34z"/>
	</g>
	<path d="M498.569,433.515l-57.797-57.797c14.051-21.635,24.048-45.232,29.786-70.295l22.29-3.715
		C504.124,299.83,512,291.273,512,280.899v-49.797c0-10.373-7.875-18.93-19.149-20.809l-22.292-3.715
		c-5.478-23.927-14.836-46.519-27.899-67.341l13.139-18.394c6.643-9.302,6.161-20.921-1.173-28.255l-35.211-35.21
		c-7.334-7.336-18.954-7.819-28.257-1.174l-18.393,13.137c-20.818-13.062-43.409-22.421-67.342-27.898l-3.716-22.29
		C299.829,7.875,291.271,0,280.898,0h-49.797c-10.373,0-18.93,7.875-20.809,19.15l-3.716,22.291
		c-23.933,5.477-46.523,14.836-67.342,27.898l-18.393-13.138c-9.303-6.644-20.921-6.161-28.255,1.174L57.375,92.586
		c-7.335,7.334-7.817,18.953-1.173,28.256l13.139,18.394c-13.063,20.825-22.422,43.416-27.899,67.341l-22.291,3.715
		C7.875,212.171,0,220.728,0,231.102v49.797c0,10.374,7.875,18.931,19.15,20.809l22.292,3.716
		c5.477,23.927,14.836,46.518,27.899,67.341l-13.139,18.394c-6.643,9.302-6.161,20.92,1.173,28.256l35.211,35.211
		c7.336,7.336,18.955,7.819,28.256,1.173l18.393-13.138c20.818,13.062,43.409,22.421,67.342,27.898l3.716,22.29
		c1.879,11.276,10.436,19.151,20.809,19.151h49.797c10.372,0,18.929-7.875,20.809-19.151l3.715-22.291
		c25.071-5.738,48.667-15.735,70.296-29.786l57.796,57.796c8.968,8.967,20.747,13.451,32.527,13.451s23.56-4.484,32.527-13.452
		C516.504,480.633,516.504,451.45,498.569,433.515z M293.725,450.544c-4.515,0.87-8.013,4.457-8.769,8.993l-4.949,29.695
		c-0.051,0.308-0.123,0.565-0.196,0.769h-47.624c-0.072-0.204-0.144-0.46-0.195-0.768l-4.95-29.696
		c-0.756-4.536-4.253-8.123-8.769-8.993c-26.319-5.072-50.934-15.27-73.161-30.309c-3.807-2.576-8.817-2.513-12.558,0.16
		l-24.501,17.501c-0.253,0.181-0.485,0.312-0.68,0.404l-33.675-33.675c0.093-0.195,0.224-0.427,0.405-0.681l17.501-24.501
		c2.672-3.741,2.736-8.749,0.16-12.556c-15.04-22.237-25.238-46.853-30.309-73.163c-0.871-4.515-4.457-8.012-8.993-8.768
		l-29.697-4.95c-0.307-0.051-0.563-0.122-0.766-0.195v-47.624c0.203-0.073,0.459-0.144,0.767-0.195l29.696-4.95
		c4.536-0.756,8.123-4.253,8.993-8.769c5.071-26.309,15.268-50.924,30.309-73.163c2.576-3.808,2.512-8.815-0.16-12.556l-17.5-24.5
		c-0.182-0.254-0.312-0.486-0.405-0.681L107.375,73.7c0.195,0.092,0.427,0.223,0.68,0.404l24.5,17.5
		c3.741,2.672,8.749,2.737,12.557,0.16c22.229-15.039,46.844-25.236,73.162-30.308c4.515-0.87,8.013-4.457,8.769-8.993l4.95-29.696
		c0.051-0.307,0.123-0.563,0.195-0.767h47.624c0.072,0.204,0.144,0.46,0.195,0.768l4.95,29.696c0.756,4.536,4.253,8.123,8.769,8.993
		c26.317,5.072,50.933,15.27,73.161,30.308c3.809,2.576,8.816,2.511,12.558-0.16l24.501-17.5c0.254-0.181,0.485-0.312,0.681-0.405
		l33.675,33.675c-0.093,0.195-0.224,0.427-0.405,0.681l-17.501,24.501c-2.672,3.741-2.736,8.749-0.16,12.556
		c15.04,22.237,25.238,46.853,30.309,73.163c0.871,4.515,4.458,8.012,8.993,8.769l29.696,4.949c0.307,0.051,0.563,0.123,0.767,0.195
		v47.624c-0.203,0.073-0.459,0.144-0.767,0.195l-29.696,4.95c-4.536,0.756-8.122,4.253-8.993,8.768
		c-4.537,23.537-13.176,45.717-25.714,66.05l-82.962-82.962c1.643-6.792,2.473-13.766,2.473-20.813
		c0-48.711-39.629-88.34-88.34-88.34c-9.362,0-18.596,1.465-27.445,4.355c-3.635,1.188-6.393,4.178-7.283,7.897
		c-0.89,3.719,0.216,7.634,2.92,10.338l38.116,38.116l-2.425,31.517l-31.517,2.425L190.25,224.19
		c-2.704-2.703-6.615-3.809-10.338-2.92c-3.719,0.89-6.709,3.647-7.896,7.283c-2.891,8.849-4.356,18.083-4.356,27.447
		c0,48.711,39.629,88.34,88.34,88.34c7.047,0,14.021-0.83,20.813-2.473l82.963,82.963
		C339.448,437.367,317.268,446.007,293.725,450.544z M483.013,483.013c-9.358,9.357-24.583,9.358-33.941,0L287.809,321.75
		c-2.096-2.096-4.907-3.222-7.78-3.222c-1.142,0-2.294,0.178-3.414,0.544c-6.64,2.169-13.576,3.269-20.615,3.269
		c-36.58,0-66.34-29.76-66.34-66.34c0-0.425,0.004-0.851,0.012-1.275l26.715,26.716c2.271,2.271,5.422,3.436,8.622,3.189
		l45.962-3.536c5.41-0.416,9.708-4.714,10.124-10.124l3.536-45.962c0.246-3.202-0.919-6.351-3.189-8.622l-26.715-26.715
		c0.424-0.008,0.849-0.012,1.274-0.012c36.58,0,66.34,29.76,66.34,66.34c0,7.039-1.1,13.975-3.269,20.615
		c-1.286,3.938-0.251,8.264,2.678,11.193l161.263,161.263C492.37,458.429,492.37,473.655,483.013,483.013z"/>
</g>
<g>
</g>
<g>
</g>
<g>
</g>
<g>
</g>
<g>
</g>
<g>
</g>
<g>
</g>
<g>
</g>
<g>
</g>
<g>
</g>
<g>
</g>
<g>
</g>
<g>
</g>
<g>
</g>
<g>
</g>
</svg>
