<?xml version="1.0" encoding="UTF-8"?>
<!-- Generator: Adobe Illustrator 24.2.3, SVG Export Plug-In . SVG Version: 6.00 Build 0)  -->
<svg xmlns="http://www.w3.org/2000/svg" xmlns:xlink="http://www.w3.org/1999/xlink" version="1.1" id="Capa_1" x="0px" y="0px" viewBox="0 0 512.001 512.001" style="enable-background:new 0 0 512.001 512.001;" xml:space="preserve" width="512" height="512">
<g>
	<path style="fill:#33CCCC;" d="M200.595,512.001c-1.46,0-2.939-0.292-4.352-0.901c-4.943-2.132-7.617-7.528-6.319-12.752   l52.876-212.84H98.428c-3.628,0-7.022-1.789-9.073-4.781c-2.051-2.992-2.495-6.804-1.186-10.187L190.095,7.032   C191.734,2.794,195.81,0,200.354,0h140.252c3.717,0,7.183,1.877,9.214,4.991c2.03,3.113,2.352,7.042,0.853,10.444L287.69,158.394   h125.884c4.023,0,7.726,2.196,9.653,5.727c1.929,3.53,1.776,7.833-0.397,11.217L209.855,506.944   C207.778,510.18,204.245,512.001,200.595,512.001z M114.477,263.508h142.39c3.384,0,6.581,1.558,8.666,4.224   c2.084,2.666,2.826,6.144,2.01,9.428l-40.212,161.863l166.104-258.629H270.824c-3.717,0-7.183-1.877-9.214-4.991   c-2.03-3.113-2.351-7.042-0.853-10.444L323.74,22H207.893L114.477,263.508z"/>
</g>















</svg>
