<?xml version="1.0" encoding="UTF-8"?>
<!-- Generator: Adobe Illustrator 26.5.0, SVG Export Plug-In . SVG Version: 6.00 Build 0)  -->
<svg xmlns="http://www.w3.org/2000/svg" xmlns:xlink="http://www.w3.org/1999/xlink" version="1.1" id="Capa_1" x="0px" y="0px" viewBox="0 0 504.019 504.019" style="enable-background:new 0 0 504.019 504.019;" xml:space="preserve" width="512" height="512">
<g>
	<path d="M492.416,11.629c-7.639-7.639-18.425-11.512-32.059-11.512c-34.154,0-87.291,24.862-149.991,70.093   c-65.961-21.053-141.183-5.464-193.424,46.778C80.867,153.063,61,201.027,61,252.045c0,20.15,3.112,39.82,9.085,58.473   c-32.823,45.599-96.076,144.367-58.501,181.943c7.638,7.638,18.425,11.512,32.062,11.512c36.766,0,87.168-28.006,122.976-51.5   c8.888-5.832,17.898-12.045,26.992-18.599c18.953,6.051,38.669,9.082,58.386,9.082c48.911,0,97.822-18.618,135.058-55.853   C423.133,351.027,443,303.063,443,252.045c0-20.141-3.109-39.803-9.077-58.448c14.072-19.524,26.433-38.519,36.759-56.59   c16.4-28.701,26.878-53.566,31.141-73.903C506.66,40.027,503.496,22.708,492.416,11.629z M132.499,132.544   c32.946-32.946,76.224-49.42,119.501-49.42s86.555,16.473,119.501,49.42c16.661,16.661,29.405,36.193,37.792,57.474   c-28.329,38.151-63.167,78.21-102.138,117.182c-38.988,38.988-79.388,73.853-117.273,102   c-20.912-8.232-40.504-20.775-57.383-37.653c-17.848-17.848-31.208-38.987-39.523-62.047c-0.139-0.52-0.321-1.028-0.535-1.524   C86.238,290.237,83,271.391,83,252.045C83,206.903,100.579,164.464,132.499,132.544z M43.646,481.974   c-7.589,0-13.143-1.706-16.505-5.068c-13.454-13.454-2.028-63.186,52.657-142.031c9.218,19.127,21.689,36.772,37.146,52.228   c15.624,15.624,33.308,27.957,52.181,37.025C117.125,460.237,71.602,481.974,43.646,481.974z M421,252.045   c0,45.141-17.579,87.581-49.499,119.501c-42.123,42.124-101.133,57.315-155.44,45.582c35.271-27.192,71.427-59.149,106.65-94.372   c35.331-35.331,67.387-71.616,94.459-106.707C419.695,227.746,421,239.794,421,252.045z M451.581,126.091   c-7.925,13.868-17.099,28.313-27.367,43.146c-9.219-19.135-21.693-36.787-37.156-52.249c-15.656-15.656-33.38-28.006-52.296-37.08   c52.636-36.421,98.81-57.791,125.596-57.791c7.587,0,13.139,1.705,16.502,5.068C486.47,36.795,484.876,67.825,451.581,126.091z"/>
	<path style="fill:#33CCCC;" d="M463,473.045c-22.607,0-41-18.392-41-41c0-22.607,18.393-41,41-41c22.607,0,41,18.393,41,41   C504,454.653,485.607,473.045,463,473.045z M463,413.045c-10.477,0-19,8.523-19,19c0,10.477,8.523,19,19,19   c10.477,0,19-8.523,19-19C482,421.569,473.477,413.045,463,413.045z"/>
	<path style="fill:#33CCCC;" d="M222,203.045c-22.607,0-41-18.393-41-41c0-22.607,18.393-41,41-41s41,18.393,41,41   C263,184.653,244.607,203.045,222,203.045z M222,143.045c-10.477,0-19,8.523-19,19c0,10.477,8.523,19,19,19   c10.477,0,19-8.523,19-19C241,151.569,232.477,143.045,222,143.045z"/>
	<path style="fill:#33CCCC;" d="M41,82.045c-22.607,0-41-18.393-41-41c0-22.607,18.393-41,41-41s41,18.393,41,41   C82,63.653,63.607,82.045,41,82.045z M41,22.045c-10.477,0-19,8.523-19,19c0,10.477,8.523,19,19,19s19-8.523,19-19   C60,30.569,51.477,22.045,41,22.045z"/>
</g>
<path d="M162,233.043c-15.808-0.279-13.403-24.608,2.151-21.78C176.892,213.471,174.925,233.364,162,233.043z"/>
<path d="M312,173.043c-12.925,0.318-14.893-19.569-2.15-21.78C325.428,148.468,327.792,172.756,312,173.043z"/>















</svg>
